HIERARCHY
ROOT hip
{
	OFFSET 0.000000 0.000000 0.000000
	CHANNELS 6 Xposition Yposition Zposition Xrotation Zrotation Yrotation 
	JOINT abdomen
	{
		OFFSET 0.000000 3.422050 0.000000
		CHANNELS 3 Xrotation Zrotation Yrotation 
		JOINT chest
		{
			OFFSET 0.000000 8.486693 -0.684411
			CHANNELS 3 Xrotation Zrotation Yrotation 
			JOINT neck
			{
				OFFSET 0.000000 10.266162 -0.273764
				CHANNELS 3 Xrotation Zrotation Yrotation 
				JOINT head
				{
					OFFSET 0.000000 3.148285 0.000000
					CHANNELS 3 Xrotation Zrotation Yrotation 
					End Site
					{
						OFFSET 0.000000 3.148289 0.000000
					}
				}
			}
			JOINT lCollar
			{
				OFFSET 3.422053 6.707223 -0.821293
				CHANNELS 3 Yrotation Zrotation Xrotation 
				JOINT lShldr
				{
					OFFSET 3.285171 0.000000 0.000000
					CHANNELS 3 Zrotation Yrotation Xrotation 
					JOINT lForeArm
					{
						OFFSET 10.129278 0.000000 0.000000
						CHANNELS 3 Yrotation Zrotation Xrotation 
						JOINT lHand
						{
							OFFSET 8.486692 0.000000 0.000000
							CHANNELS 3 Zrotation Yrotation Xrotation 
							End Site
							{
								OFFSET 4.106464 0.000000 0.000000
							}
						}
					}
				}
			}
			JOINT rCollar
			{
				OFFSET -3.558935 6.707223 -0.821293
				CHANNELS 3 Yrotation Zrotation Xrotation 
				JOINT rShldr
				{
					OFFSET -3.148289 0.000000 0.000000
					CHANNELS 3 Zrotation Yrotation Xrotation 
					JOINT rForeArm
					{
						OFFSET -10.266159 0.000000 0.000000
						CHANNELS 3 Yrotation Zrotation Xrotation 
						JOINT rHand
						{
							OFFSET -8.349810 0.000000 0.000000
							CHANNELS 3 Zrotation Yrotation Xrotation 
							End Site
							{
								OFFSET -4.106464 0.000000 0.000000
							}
						}
					}
				}
			}
		}
	}
	JOINT lThigh
	{
		OFFSET 5.338403 -1.642589 1.368821
		CHANNELS 3 Xrotation Zrotation Yrotation 
		JOINT lShin
		{
			OFFSET -2.053232 -20.121670 0.000000
			CHANNELS 3 Xrotation Zrotation Yrotation 
			JOINT lFoot
			{
				OFFSET 0.000000 -19.300380 -1.231939
				CHANNELS 3 Xrotation Yrotation Zrotation 
				End Site
				{
					OFFSET 0.000000 -2.463878 4.653993
				}
			}
		}
	}
	JOINT rThigh
	{
		OFFSET -5.338403 -1.642589 1.368821
		CHANNELS 3 Xrotation Zrotation Yrotation 
		JOINT rShin
		{
			OFFSET 2.053232 -20.121670 0.000000
			CHANNELS 3 Xrotation Zrotation Yrotation 
			JOINT rFoot
			{
				OFFSET 0.000000 -19.300380 -1.231939
				CHANNELS 3 Xrotation Yrotation Zrotation 
				End Site
				{
					OFFSET 0.000000 -2.463878 4.653993
				}
			}
		}
	}
}
MOTION
Frames: 11
Frame Time: 0.050000
0.000000 43.528500 0.000000 0.000000 0.000000 0.000000 0.000000 0.000000 0.000000 0.000000 0.000000 0.000000 0.000000 0.000000 0.000000 0.000000 0.000000 0.000000 0.000000 0.000000 0.000000 0.000000 0.000000 0.000000 0.000000 0.000000 0.000000 0.000000 0.000000 0.000000 0.000000 0.000000 0.000000 0.000000 0.000000 0.000000 0.000000 0.000000 0.000000 0.000000 0.000000 0.000000 0.000000 0.000000 0.000000 0.000000 0.000000 0.000000 0.000000 0.000000 0.000000 0.000000 0.000000 0.000000 0.000000 0.000000 0.000000 0.000000 0.000000 0.000000 
-0.351432 46.721462 -2.225774 180.000000 0.000000 180.000000 5.658920 -0.022565 -0.216447 -17.740049 -0.080062 -1.182087 48.996311 0.000000 0.000000 -58.002003 0.000000 0.000000 11.650970 -19.683956 14.654763 -7.429029 -72.653259 8.031874 -33.678719 -4.853105 -16.743439 -24.661953 -38.681137 -34.272816 -11.405720 19.661510 14.046806 7.443273 72.687271 8.081112 33.525398 4.778749 -16.814301 26.047215 38.011692 -33.251316 -75.921173 21.797590 -22.415039 82.155968 -65.756989 -5.312004 56.612297 -11.089832 19.842804 -81.339508 -15.003799 25.000986 101.127258 55.218636 22.377680 56.617420 11.107754 -19.869694 
-0.404576 46.812038 -2.353317 -179.462051 0.000000 180.000000 5.658921 -0.022565 -0.216447 -15.828818 -0.080152 -1.182243 48.996311 0.000000 0.000000 -59.837513 0.000000 0.000000 11.602511 -19.472511 13.591325 -7.429029 -72.653259 8.031874 -34.895390 -4.953133 -16.845093 -23.664778 -38.182034 -34.901058 -11.483929 19.458380 13.027381 7.443273 72.687271 8.081113 34.894016 4.882462 -16.927734 24.979761 37.458805 -33.959709 -75.207275 22.019218 -21.775686 82.155968 -65.756989 -5.311999 56.993538 -10.794243 20.398651 -80.999321 -15.240216 24.909336 101.127266 55.218639 22.377684 56.970959 11.070010 -19.998531 
-0.457720 46.902615 -2.480860 -178.923981 0.000000 180.000000 5.658920 -0.022565 -0.216447 -13.911658 -0.080237 -1.182401 48.996311 0.000000 0.000000 -61.678242 0.000000 0.000000 11.558244 -19.260054 12.528436 -7.429029 -72.653259 8.031874 -36.113937 -5.051107 -16.948999 -22.680681 -37.674129 -35.514385 -11.565931 19.256390 12.007948 7.443269 72.687248 8.081108 36.265194 4.983599 -17.043819 23.927895 36.895176 -34.650482 -74.489265 22.233521 -21.132067 82.155968 -65.756981 -5.312009 57.371616 -10.494926 20.952158 -80.658287 -15.476131 24.816111 101.127258 55.218636 22.377680 57.324406 11.031484 -20.127129 
-0.510863 46.993191 -2.608402 -178.385803 0.000000 180.000000 5.658920 -0.022565 -0.216447 -11.989625 -0.080316 -1.182562 48.996311 0.000000 0.000000 -63.523293 0.000000 0.000000 11.518178 -19.046692 11.466259 -7.429029 -72.653252 8.031874 -37.334095 -5.146953 -17.055105 -21.709589 -37.157734 -36.112843 -11.651695 19.055655 10.988654 7.443273 72.687271 8.081112 37.638554 5.082064 -17.162472 22.891539 36.321190 -35.323666 -73.767288 22.440403 -20.484339 82.155968 -65.756989 -5.312004 57.746506 -10.191949 21.503292 -80.316444 -15.711534 24.721313 101.127258 55.218636 22.377680 57.677753 10.992177 -20.255476 
-0.564007 47.083767 -2.735945 -177.847549 0.000000 180.000000 5.658920 -0.022565 -0.216447 -10.063779 -0.080390 -1.182727 48.996319 0.000000 0.000000 -65.371704 0.000000 0.000000 11.482329 -18.832531 10.404945 -7.429029 -72.653259 8.031874 -38.555573 -5.240601 -17.163334 -20.751440 -36.633175 -36.696514 -11.741176 18.856276 9.969647 7.443273 72.687271 8.081112 39.013718 5.177763 -17.283607 21.870594 35.737293 -35.979404 -73.041542 22.639778 -19.832680 82.155968 -65.756996 -5.311999 58.118156 -9.885368 22.052013 -79.973770 -15.946407 24.624939 101.127258 55.218636 22.377680 58.030983 10.952092 -20.383566 
-0.617151 47.174343 -2.863488 -177.309250 0.000000 180.000000 5.658920 -0.022565 -0.216447 -8.135204 -0.080459 -1.182894 48.996307 0.000000 0.000000 -67.222542 0.000000 0.000000 11.450707 -18.617687 9.344658 -7.429029 -72.653252 8.031874 -39.778111 -5.331982 -17.273626 -19.806118 -36.100750 -37.265472 -11.834315 18.658342 8.951065 7.443273 72.687271 8.081112 40.390270 5.270604 -17.407116 20.864933 35.143867 -36.617775 -72.312149 22.831530 -19.177231 82.155960 -65.756981 -5.311999 58.486526 -9.575252 22.598301 -79.630257 -16.180737 24.526983 101.127258 55.218636 22.377680 58.384083 10.911229 -20.511387 
-0.670294 47.264919 -2.991031 -176.770920 0.000000 180.000000 5.658920 -0.022565 -0.216447 -6.204990 -0.080522 -1.183063 48.996307 0.000000 0.000000 -69.074814 0.000000 0.000000 11.423308 -18.402266 8.285547 -7.429029 -72.653259 8.031874 -41.001415 -5.421027 -17.385904 -18.873531 -35.560795 -37.819847 -11.931068 18.461956 7.933055 7.443273 72.687271 8.081112 41.767826 5.360503 -17.532906 19.874413 34.541340 -37.238934 -71.579308 23.015575 -18.518175 82.155968 -65.756989 -5.312004 58.851601 -9.261661 23.142122 -79.285912 -16.414509 24.427448 101.127258 55.218628 22.377676 58.737045 10.869591 -20.638933 
-0.723438 47.355492 -3.118574 -176.232590 0.000000 180.000000 5.658920 -0.022565 -0.216447 -4.274224 -0.080580 -1.183235 48.996311 0.000000 0.000000 -70.927589 0.000000 0.000000 11.400143 -18.186390 7.227772 -7.429029 -72.653259 8.031874 -42.225212 -5.507676 -17.500095 -17.953548 -35.013611 -38.359749 -12.031384 18.267216 6.915761 7.443273 72.687271 8.081112 43.145973 5.447376 -17.660868 18.898863 33.930111 -37.843037 -70.843201 23.191843 -17.855705 82.155968 -65.756989 -5.312004 59.213322 -8.944664 23.683447 -78.940697 -16.647699 24.326323 101.127258 55.218636 22.377680 59.089874 10.827185 -20.766199 
-0.776582 47.446068 -3.246117 -175.694275 0.000000 180.000000 5.658921 -0.022565 -0.216447 -2.344009 -0.080632 -1.183408 48.996311 0.000000 0.000000 -72.779869 0.000000 0.000000 11.381200 -17.970163 6.171482 -7.429029 -72.653275 8.031875 -43.449223 -5.591866 -17.616125 -17.046024 -34.459488 -38.885284 -12.135198 18.074205 5.899328 7.443273 72.687271 8.081112 44.524315 5.531147 -17.790890 17.938080 33.310551 -38.430225 -70.103989 23.360237 -17.189993 82.155968 -65.756989 -5.312004 59.571674 -8.624324 24.222250 -78.594650 -16.880299 24.223604 101.127266 55.218639 22.377684 59.442562 10.784009 -20.893185 
-0.829725 47.536644 -3.373660 -175.156006 0.000000 180.000000 5.658920 -0.022565 -0.216447 -0.415435 -0.080677 -1.183583 48.996311 0.000000 0.000000 -74.630699 0.000000 0.000000 11.366468 -17.753689 5.116826 -7.429029 -72.653275 8.031875 -44.673153 -5.673543 -17.733912 -16.150820 -33.898773 -39.396656 -12.242452 17.883034 4.883902 7.443273 72.687271 8.081112 45.902435 5.611746 -17.922859 16.991886 32.683113 -39.000755 -69.361893 23.520691 -16.521233 82.155968 -65.756989 -5.312004 59.926624 -8.300708 24.758509 -78.247749 -17.112291 24.119295 101.127258 55.218636 22.377680 59.795090 10.740068 -21.019871 
